<?xml version="1.0" encoding="utf-8"?>
<!-- Generator: Adobe Illustrator 15.0.0, SVG Export Plug-In . SVG Version: 6.00 Build 0)  -->
<!DOCTYPE svg PUBLIC "-//W3C//DTD SVG 1.1//EN" "http://www.w3.org/Graphics/SVG/1.1/DTD/svg11.dtd">
<svg version="1.1" id="Layer_1" xmlns="http://www.w3.org/2000/svg" xmlns:xlink="http://www.w3.org/1999/xlink" x="0px" y="0px"
	 width="296.007px" height="77.467px" viewBox="220 217.241 296.007 77.467" enable-background="new 220 217.241 296.007 77.467"
	 xml:space="preserve">
<g>
	<path fill="#333333" d="M240.008,235.498c0,1.878-0.245,3.521-0.734,4.931c-0.488,1.408-1.358,2.602-2.61,3.579
		c1.174,0.939,2.024,1.996,2.553,3.17s0.792,2.327,0.792,3.463v7.042l-0.411,0.646l-3.874,1.173l-0.938-0.938v-7.981
		c0-0.666-0.089-1.33-0.265-1.996c-0.176-0.665-0.439-1.262-0.792-1.79c-0.352-0.528-0.783-0.948-1.291-1.262
		c-0.509-0.313-1.076-0.469-1.702-0.469h-5.104v13.498l-0.939,0.938l-3.873-1.173l-0.41-0.646v-39.79h5.105
		c2.739,0,4.998,0.361,6.779,1.086c1.78,0.724,3.218,1.73,4.313,3.021c1.33,1.565,2.23,3.501,2.7,5.811
		C239.773,230.118,240.008,232.681,240.008,235.498L240.008,235.498z M230.735,242.188c1.448,0,2.485-0.559,3.11-1.672
		c0.626-1.115,0.939-2.788,0.939-5.019c0-2.935-0.216-5.35-0.646-7.248c-0.43-1.896-1.037-3.296-1.819-4.195
		c-0.899-1.057-1.857-1.771-2.876-2.143c-1.017-0.372-2.289-0.558-3.813-0.558v20.834H230.735L230.735,242.188z"/>
	<polygon fill="#333333" points="248.4,259.501 244.527,258.328 244.116,257.682 244.116,218.303 244.997,217.363 248.87,218.537 
		249.281,219.183 249.281,258.563 	"/>
	<polygon fill="#333333" points="258.495,217.892 267.826,245.123 267.885,245.123 267.885,219.183 268.296,218.537 
		272.169,217.363 273.108,218.303 273.108,258.974 268.002,258.974 258.671,232.153 258.612,232.153 258.612,258.563 
		257.673,259.501 253.8,258.328 253.389,257.682 253.389,217.892 	"/>
	<path fill="#333333" d="M282.439,242.188h9.272v-20.834c-1.604,0-2.944,0.186-4.021,0.558c-1.075,0.372-1.984,1.007-2.729,1.907
		c-0.9,1.095-1.545,2.592-1.938,4.49c-0.392,1.896-0.587,4.313-0.587,7.248L282.439,242.188L282.439,242.188z M277.216,235.557
		c0-2.935,0.245-5.546,0.734-7.835c0.488-2.289,1.458-4.294,2.904-6.016c0.939-1.096,2.337-2.005,4.196-2.729
		c1.858-0.725,4.079-1.086,6.661-1.086h5.223v39.79l-0.411,0.646l-3.874,1.173l-0.938-0.938v-13.498h-9.272v13.498l-0.938,0.938
		l-3.874-1.173l-0.411-0.646L277.216,235.557L277.216,235.557z"/>
	<path fill="#333333" d="M306.267,252.87c0,0.9,0.166,1.565,0.499,1.996s0.732,0.646,1.203,0.646h7.923l0.645,0.646l-0.645,2.113
		l-1.057,0.704h-6.866c-2.113,0-3.795-0.598-5.047-1.79c-1.252-1.193-1.878-2.631-1.878-4.314v-34.566l0.938-0.939l3.873,1.174
		l0.411,0.646V252.87L306.267,252.87z"/>
	<path fill="#333333" d="M340.364,241.308c0,2.895-0.245,5.478-0.732,7.747c-0.489,2.269-1.458,4.264-2.905,5.985
		c-0.9,1.135-2.271,2.074-4.108,2.817s-4.088,1.115-6.749,1.115h-0.41l-0.528,0.526l-3.873-1.173l-0.411-0.646v-39.79h5.224
		c2.543,0,4.714,0.342,6.515,1.026c1.8,0.686,3.188,1.556,4.167,2.611c1.486,1.683,2.494,3.697,3.021,6.045
		c0.528,2.348,0.792,5.008,0.792,7.981L340.364,241.308L340.364,241.308z M335.141,235.557c0-2.621-0.137-4.843-0.411-6.661
		c-0.274-1.819-0.782-3.296-1.526-4.432c-0.704-1.096-1.643-1.888-2.816-2.377c-1.173-0.488-2.681-0.732-4.52-0.732v34.156
		c1.683,0,3.071-0.205,4.167-0.616c1.097-0.411,2.094-1.263,2.993-2.554c1.408-1.956,2.113-5.634,2.113-11.033V235.557
		L335.141,235.557z"/>
	<path fill="#333333" d="M344.472,217.598h5.751c2.465,0,4.588,0.322,6.368,0.968c1.779,0.646,3.158,1.477,4.138,2.494
		c1.565,1.683,2.622,3.708,3.169,6.075c0.548,2.366,0.822,5.076,0.822,8.128v24.003h-5.751c-2.622,0-4.861-0.362-6.721-1.086
		c-1.858-0.725-3.237-1.653-4.137-2.787c-1.448-1.723-2.416-3.717-2.905-5.986c-0.488-2.27-0.733-4.871-0.733-7.806L344.472,217.598
		L344.472,217.598z M349.696,241.602c0,2.935,0.215,5.351,0.646,7.248c0.43,1.896,1.037,3.296,1.818,4.195
		c0.9,1.096,1.869,1.829,2.905,2.2c1.037,0.372,2.338,0.559,3.903,0.559h0.527v-20.54c0-2.896-0.195-5.303-0.587-7.22
		s-1.075-3.442-2.054-4.578c-1.448-1.604-3.658-2.406-6.632-2.406h-0.528V241.602L349.696,241.602z"/>
	<path fill="#333333" d="M391.656,252.87c0,0.9,0.166,1.565,0.499,1.996s0.733,0.646,1.203,0.646h7.923l0.646,0.646l-0.646,2.113
		l-1.057,0.704h-6.866c-2.113,0-3.795-0.598-5.047-1.79c-1.252-1.193-1.879-2.631-1.879-4.314v-34.566l0.938-0.939l3.873,1.174
		l0.411,0.646L391.656,252.87L391.656,252.87z"/>
	<path fill="#333333" d="M423.7,244.712c0,2.427-0.137,4.51-0.411,6.25c-0.272,1.741-0.742,3.258-1.407,4.549
		c-0.549,1.135-1.418,2.044-2.611,2.729s-2.611,1.027-4.255,1.027h-2.348c-1.408,0-2.682-0.265-3.815-0.792
		c-1.134-0.528-1.976-1.203-2.522-2.025c-0.86-1.33-1.468-2.934-1.818-4.812c-0.354-1.878-0.529-4.187-0.529-6.926v-26.408
		l0.939-0.939l3.873,1.174l0.41,0.646v25.528c0,2.035,0.068,3.795,0.205,5.282c0.139,1.487,0.382,2.68,0.734,3.58
		c0.548,1.486,1.389,2.229,2.523,2.229h2.348c1.135,0,1.976-0.803,2.522-2.406c0.313-0.979,0.549-2.201,0.704-3.668
		c0.156-1.467,0.235-3.141,0.235-5.019v-25.528l0.41-0.646l3.873-1.174l0.938,0.939L423.7,244.712L423.7,244.712z"/>
	<path fill="#333333" d="M442.305,258.974c-2.582,0-4.772-0.344-6.572-1.027s-3.188-1.575-4.167-2.67
		c-1.487-1.722-2.484-3.747-2.993-6.075s-0.764-4.959-0.764-7.894v-5.751c0-2.974,0.265-5.635,0.793-7.981s1.535-4.362,3.021-6.045
		c0.979-1.056,2.367-1.927,4.167-2.611c1.801-0.685,3.972-1.026,6.515-1.026h4.52l0.646,0.646l-0.646,2.113l-1.114,0.705h-3.404
		c-1.486,0-2.748,0.166-3.785,0.499s-2.005,1.008-2.905,2.024c-0.782,0.9-1.407,2.31-1.878,4.227
		c-0.469,1.917-0.704,4.4-0.704,7.453v5.751c0,2.895,0.205,5.281,0.616,7.16c0.411,1.878,1.008,3.285,1.79,4.226
		c0.9,1.135,1.868,1.888,2.905,2.259c1.037,0.372,2.356,0.559,3.961,0.559h3.404l1.114,0.703l0.646,2.113l-0.646,0.646h-4.52
		V258.974z"/>
	<path fill="#333333" d="M463.079,221.354c-1.721,0-3.158,0.233-4.313,0.704c-1.153,0.469-2.083,1.213-2.787,2.229
		c-0.782,1.134-1.34,2.621-1.673,4.46s-0.499,4.108-0.499,6.809v6.632h11.562v2.876h-11.562c0.039,2.308,0.245,4.146,0.616,5.517
		c0.372,1.369,0.852,2.348,1.438,2.935c0.899,0.938,1.907,1.506,3.021,1.703c1.114,0.194,2.515,0.293,4.195,0.293h3.404l1.115,0.703
		l0.646,2.113l-0.646,0.646h-4.521c-4.969,0-8.588-1.058-10.855-3.17c-1.291-1.174-2.221-2.67-2.788-4.489s-0.851-4-0.851-6.543
		v-9.214c0-2.935,0.243-5.557,0.732-7.864c0.489-2.309,1.478-4.324,2.964-6.045c0.938-1.057,2.327-1.947,4.166-2.67
		c1.84-0.725,4.05-1.086,6.632-1.086h4.521l0.646,0.646l-0.646,2.113l-1.115,0.705h-3.403V221.354z"/>
	<polygon fill="#333333" points="477.459,217.892 486.789,245.123 486.85,245.123 486.85,219.183 487.26,218.537 491.133,217.363 
		492.072,218.303 492.072,258.974 486.967,258.974 477.635,232.153 477.575,232.153 477.575,258.563 476.638,259.501 
		472.764,258.328 472.354,257.682 472.354,217.892 	"/>
	<path fill="#333333" d="M501.403,242.188h9.272v-20.834c-1.604,0-2.943,0.186-4.021,0.558c-1.076,0.372-1.984,1.007-2.729,1.907
		c-0.899,1.095-1.545,2.592-1.938,4.49c-0.391,1.896-0.587,4.313-0.587,7.248L501.403,242.188L501.403,242.188z M496.18,235.557
		c0-2.935,0.245-5.546,0.733-7.835c0.489-2.289,1.457-4.294,2.905-6.016c0.938-1.096,2.337-2.005,4.196-2.729
		c1.857-0.725,4.078-1.086,6.66-1.086h5.224v39.79l-0.411,0.646l-3.873,1.173l-0.938-0.938v-13.498h-9.272v13.498l-0.938,0.938
		l-3.874-1.173l-0.411-0.646L496.18,235.557L496.18,235.557z"/>
	<path fill="none" stroke="#4D4D4D" stroke-width="0.216" stroke-miterlimit="22.9256" d="M240.008,235.498
		c0,1.878-0.245,3.521-0.734,4.931c-0.488,1.408-1.358,2.602-2.61,3.579c1.174,0.939,2.024,1.996,2.553,3.17
		s0.792,2.327,0.792,3.463v7.042l-0.411,0.646l-3.874,1.173l-0.938-0.938v-7.981c0-0.666-0.089-1.33-0.265-1.996
		c-0.176-0.665-0.439-1.262-0.792-1.79c-0.352-0.528-0.783-0.948-1.291-1.262c-0.509-0.313-1.076-0.469-1.702-0.469h-5.104v13.498
		l-0.939,0.938l-3.873-1.173l-0.41-0.646v-39.79h5.105c2.739,0,4.998,0.361,6.779,1.086c1.78,0.724,3.218,1.73,4.313,3.021
		c1.33,1.565,2.23,3.501,2.7,5.811C239.773,230.118,240.008,232.681,240.008,235.498L240.008,235.498z M230.735,242.188
		c1.448,0,2.485-0.559,3.11-1.672c0.626-1.115,0.939-2.788,0.939-5.019c0-2.935-0.216-5.35-0.646-7.248
		c-0.43-1.896-1.037-3.296-1.819-4.195c-0.899-1.057-1.857-1.771-2.876-2.143c-1.017-0.372-2.289-0.558-3.813-0.558v20.834H230.735
		L230.735,242.188z M248.4,259.501l-3.873-1.173l-0.41-0.646v-39.379l0.88-0.939l3.873,1.174l0.41,0.646v39.38L248.4,259.501
		L248.4,259.501z M258.495,217.892l9.332,27.23h0.059v-25.939l0.411-0.646l3.873-1.174l0.938,0.939v40.671h-5.104l-9.332-26.821
		h-0.06v26.41l-0.938,0.938l-3.873-1.173l-0.411-0.646v-39.79L258.495,217.892L258.495,217.892z M282.439,242.188h9.272v-20.834
		c-1.604,0-2.944,0.186-4.021,0.558c-1.075,0.372-1.984,1.007-2.729,1.907c-0.9,1.095-1.545,2.592-1.938,4.49
		c-0.392,1.896-0.587,4.313-0.587,7.248L282.439,242.188L282.439,242.188z M277.216,235.557c0-2.935,0.245-5.546,0.734-7.835
		c0.488-2.289,1.458-4.294,2.904-6.016c0.939-1.096,2.337-2.005,4.196-2.729c1.858-0.725,4.079-1.086,6.661-1.086h5.223v39.79
		l-0.411,0.646l-3.874,1.173l-0.938-0.938v-13.498h-9.272v13.498l-0.938,0.938l-3.874-1.173l-0.411-0.646L277.216,235.557
		L277.216,235.557z M306.267,252.87c0,0.9,0.166,1.565,0.499,1.996s0.732,0.646,1.203,0.646h7.923l0.645,0.646l-0.645,2.113
		l-1.057,0.704h-6.866c-2.113,0-3.795-0.598-5.047-1.79c-1.252-1.193-1.878-2.631-1.878-4.314v-34.566l0.938-0.939l3.873,1.174
		l0.411,0.646V252.87L306.267,252.87z M340.364,241.308c0,2.895-0.245,5.478-0.732,7.747c-0.489,2.269-1.458,4.264-2.905,5.985
		c-0.9,1.135-2.271,2.074-4.108,2.817s-4.088,1.115-6.749,1.115h-0.41l-0.528,0.526l-3.873-1.173l-0.411-0.646v-39.79h5.224
		c2.543,0,4.714,0.342,6.515,1.026c1.8,0.686,3.188,1.556,4.167,2.611c1.486,1.683,2.494,3.697,3.021,6.045
		c0.528,2.348,0.792,5.008,0.792,7.981L340.364,241.308L340.364,241.308z M335.141,235.557c0-2.621-0.137-4.843-0.411-6.661
		c-0.274-1.819-0.782-3.296-1.526-4.432c-0.704-1.096-1.643-1.888-2.816-2.377c-1.173-0.488-2.681-0.732-4.52-0.732v34.156
		c1.683,0,3.071-0.205,4.167-0.616c1.097-0.411,2.094-1.263,2.993-2.554c1.408-1.956,2.113-5.634,2.113-11.033V235.557
		L335.141,235.557z M344.472,217.598h5.751c2.465,0,4.588,0.322,6.368,0.968c1.779,0.646,3.158,1.477,4.138,2.494
		c1.565,1.683,2.622,3.708,3.169,6.075c0.548,2.366,0.822,5.076,0.822,8.128v24.003h-5.751c-2.622,0-4.861-0.362-6.721-1.086
		c-1.858-0.725-3.237-1.653-4.137-2.787c-1.448-1.723-2.416-3.717-2.905-5.986c-0.488-2.27-0.733-4.871-0.733-7.806L344.472,217.598
		L344.472,217.598z M349.696,241.602c0,2.935,0.215,5.351,0.646,7.248c0.43,1.896,1.037,3.296,1.818,4.195
		c0.9,1.096,1.869,1.829,2.905,2.2c1.037,0.372,2.338,0.559,3.903,0.559h0.527v-20.54c0-2.896-0.195-5.303-0.587-7.22
		s-1.075-3.442-2.054-4.578c-1.448-1.604-3.658-2.406-6.632-2.406h-0.528V241.602L349.696,241.602z M391.656,252.87
		c0,0.9,0.166,1.565,0.499,1.996s0.733,0.646,1.203,0.646h7.923l0.646,0.646l-0.646,2.113l-1.057,0.704h-6.866
		c-2.113,0-3.795-0.598-5.047-1.79c-1.252-1.193-1.879-2.631-1.879-4.314v-34.566l0.938-0.939l3.873,1.174l0.411,0.646
		L391.656,252.87L391.656,252.87z M423.7,244.712c0,2.427-0.137,4.51-0.411,6.25c-0.272,1.741-0.742,3.258-1.407,4.549
		c-0.549,1.135-1.418,2.044-2.611,2.729s-2.611,1.027-4.255,1.027h-2.348c-1.408,0-2.682-0.265-3.815-0.792
		c-1.134-0.528-1.976-1.203-2.522-2.025c-0.86-1.33-1.468-2.934-1.818-4.812c-0.354-1.878-0.529-4.187-0.529-6.926v-26.408
		l0.939-0.939l3.873,1.174l0.41,0.646v25.528c0,2.035,0.068,3.795,0.205,5.282c0.139,1.487,0.382,2.68,0.734,3.58
		c0.548,1.486,1.389,2.229,2.523,2.229h2.348c1.135,0,1.976-0.803,2.522-2.406c0.313-0.979,0.549-2.201,0.704-3.668
		c0.156-1.467,0.235-3.141,0.235-5.019v-25.528l0.41-0.646l3.873-1.174l0.938,0.939L423.7,244.712L423.7,244.712z M442.305,258.974
		c-2.582,0-4.772-0.344-6.572-1.027s-3.188-1.575-4.167-2.67c-1.487-1.722-2.484-3.747-2.993-6.075s-0.764-4.959-0.764-7.894v-5.751
		c0-2.974,0.265-5.635,0.793-7.981s1.535-4.362,3.021-6.045c0.979-1.056,2.367-1.927,4.167-2.611
		c1.801-0.685,3.972-1.026,6.515-1.026h4.52l0.646,0.646l-0.646,2.113l-1.114,0.705h-3.404c-1.486,0-2.748,0.166-3.785,0.499
		s-2.005,1.008-2.905,2.024c-0.782,0.9-1.407,2.31-1.878,4.227c-0.469,1.917-0.704,4.4-0.704,7.453v5.751
		c0,2.895,0.205,5.281,0.616,7.16c0.411,1.878,1.008,3.285,1.79,4.226c0.9,1.135,1.868,1.888,2.905,2.259
		c1.037,0.372,2.356,0.559,3.961,0.559h3.404l1.114,0.703l0.646,2.113l-0.646,0.646h-4.52V258.974z M463.079,221.354
		c-1.721,0-3.158,0.233-4.313,0.704c-1.153,0.469-2.083,1.213-2.787,2.229c-0.782,1.134-1.34,2.621-1.673,4.46
		s-0.499,4.108-0.499,6.809v6.632h11.562v2.876h-11.562c0.039,2.308,0.245,4.146,0.616,5.517c0.372,1.369,0.852,2.348,1.438,2.935
		c0.899,0.938,1.907,1.506,3.021,1.703c1.114,0.194,2.515,0.293,4.195,0.293h3.404l1.115,0.703l0.646,2.113l-0.646,0.646h-4.521
		c-4.969,0-8.588-1.058-10.855-3.17c-1.291-1.174-2.221-2.67-2.788-4.489s-0.851-4-0.851-6.543v-9.214
		c0-2.935,0.243-5.557,0.732-7.864c0.489-2.309,1.478-4.324,2.964-6.045c0.938-1.057,2.327-1.947,4.166-2.67
		c1.84-0.725,4.05-1.086,6.632-1.086h4.521l0.646,0.646l-0.646,2.113l-1.115,0.705h-3.403V221.354z M477.459,217.892l9.33,27.23
		h0.061v-25.939l0.41-0.646l3.873-1.174l0.938,0.939v40.671h-5.104l-9.332-26.821h-0.06v26.41l-0.938,0.938l-3.874-1.173
		l-0.41-0.646v-39.79L477.459,217.892L477.459,217.892z M501.403,242.188h9.272v-20.834c-1.604,0-2.943,0.186-4.021,0.558
		c-1.076,0.372-1.984,1.007-2.729,1.907c-0.899,1.095-1.545,2.592-1.938,4.49c-0.391,1.896-0.587,4.313-0.587,7.248L501.403,242.188
		L501.403,242.188z M496.18,235.557c0-2.935,0.245-5.546,0.733-7.835c0.489-2.289,1.457-4.294,2.905-6.016
		c0.938-1.096,2.337-2.005,4.196-2.729c1.857-0.725,4.078-1.086,6.66-1.086h5.224v39.79l-0.411,0.646l-3.873,1.173l-0.938-0.938
		v-13.498h-9.272v13.498l-0.938,0.938l-3.874-1.173l-0.411-0.646L496.18,235.557L496.18,235.557z"/>
	<polygon fill="#000066" points="220.464,288.333 220.464,272.716 224.933,272.716 224.922,273.429 221.256,273.429 
		221.256,279.892 224.637,279.892 224.637,280.698 221.256,280.698 221.256,287.558 225.044,287.558 225.075,288.333 	"/>
	<path fill="#000066" d="M230.764,278.926c0,0.627,0.285,0.936,0.855,0.936h2.157c0.519,0,0.775,0.327,0.775,0.979v5.172v0.652
		c0,0.436-0.104,0.813-0.309,1.141c-0.209,0.322-0.554,0.5-1.036,0.527h-2.158c-0.299-0.027-0.556-0.197-0.771-0.508
		c-0.219-0.313-0.319-0.66-0.306-1.039v-3.423h0.712v2.87c0,0.449,0.052,0.789,0.163,1.019c0.108,0.233,0.358,0.349,0.75,0.349
		h0.998c0.403,0,0.699-0.122,0.886-0.365c0.191-0.246,0.285-0.569,0.285-0.979l-0.028-4.601c0.019-0.637-0.268-0.963-0.854-0.977
		h-1.835c-0.706,0-1.061-0.464-1.061-1.388v-4.315v-0.649c0-0.435,0.104-0.816,0.313-1.14c0.205-0.327,0.553-0.504,1.032-0.532
		h2.158c0.382,0.028,0.659,0.198,0.837,0.511c0.174,0.313,0.257,0.657,0.242,1.039v3.42h-0.712v-2.871
		c0-0.447-0.056-0.788-0.164-1.018c-0.107-0.233-0.36-0.348-0.754-0.348h-1.403c-0.247,0-0.435,0.12-0.566,0.367
		c-0.132,0.243-0.198,0.57-0.198,0.978l-0.011,3.541L230.764,278.926L230.764,278.926z"/>
	<path fill="#000066" d="M239.469,288.333v-15.647h2.513c0.512,0,0.896,0.143,1.157,0.428c0.26,0.285,0.472,0.781,0.629,1.49
		c0.16,0.709,0.24,1.494,0.24,2.359c0,1.111-0.132,2.013-0.4,2.696c-0.271,0.686-0.531,1.112-0.789,1.282
		c-0.261,0.17-0.632,0.313-1.123,0.428l-0.607,0.01h-0.875v6.954H239.469L239.469,288.333z M240.219,280.757h1.456
		c0.504-0.242,0.845-0.5,1.019-0.771c0.178-0.271,0.326-0.681,0.448-1.223s0.209-1.18,0.257-1.904
		c-0.076-1.091-0.202-1.957-0.379-2.596c-0.177-0.638-0.684-1.025-1.524-1.161l-1.275,0.03L240.219,280.757L240.219,280.757z"/>
	<polygon fill="#000066" points="248.998,288.333 248.998,272.716 253.466,272.716 253.456,273.429 249.79,273.429 249.79,279.892 
		253.171,279.892 253.171,280.698 249.79,280.698 249.79,287.558 253.578,287.558 253.609,288.333 	"/>
	<path fill="#000066" d="M259.297,281.654v4.563c0,0.436,0.069,0.771,0.205,1.019c0.136,0.243,0.448,0.365,0.935,0.365h0.998
		c0.396,0,0.646-0.114,0.754-0.349c0.108-0.229,0.164-0.568,0.164-1.019v-2.87h0.712v3.423c0.015,0.379-0.087,0.728-0.306,1.039
		c-0.215,0.31-0.528,0.479-0.936,0.508h-1.997c-0.479-0.027-0.816-0.212-1.012-0.549c-0.193-0.341-0.292-0.713-0.292-1.119v-0.652
		v-11.037v-0.649c0-0.435,0.104-0.817,0.313-1.14c0.205-0.327,0.552-0.504,1.032-0.532h1.873c0.406,0.028,0.739,0.198,0.997,0.511
		c0.261,0.313,0.383,0.657,0.368,1.039v3.42h-0.712v-2.871c0-0.447-0.056-0.788-0.163-1.018c-0.107-0.233-0.36-0.348-0.754-0.348
		h-1.403c-0.247,0-0.435,0.12-0.566,0.367c-0.132,0.243-0.198,0.57-0.198,0.978l-0.01,3.541v0.652v1.384v1.345H259.297z"/>
	<polygon fill="#000066" points="268.013,288.333 267.992,272.653 268.805,272.653 268.805,288.333 	"/>
	<polygon fill="#000066" points="276.276,275.83 274.588,288.333 273.722,288.333 276.096,272.674 276.979,272.674 279.536,288.333 
		278.587,288.333 276.492,274.231 	"/>
	<polygon fill="#000066" points="284.137,288.333 284.116,272.653 284.929,272.653 284.929,287.52 288.717,287.52 288.749,288.333 	
		"/>
	<polygon fill="#000066" points="293.443,288.333 293.422,272.653 294.235,272.653 294.235,288.333 	"/>
	<path fill="#000066" d="M299.996,278.926c0,0.627,0.285,0.936,0.855,0.936h2.158c0.518,0,0.774,0.327,0.774,0.979v5.172v0.652
		c0,0.436-0.104,0.813-0.309,1.141c-0.209,0.322-0.553,0.5-1.036,0.527h-2.158c-0.299-0.027-0.556-0.197-0.771-0.508
		c-0.219-0.313-0.32-0.66-0.307-1.039v-3.423h0.713v2.87c0,0.449,0.052,0.789,0.162,1.019c0.108,0.233,0.358,0.349,0.75,0.349h0.998
		c0.403,0,0.699-0.122,0.887-0.365c0.19-0.246,0.284-0.569,0.284-0.979l-0.027-4.601c0.018-0.637-0.269-0.963-0.854-0.977h-1.835
		c-0.706,0-1.06-0.464-1.06-1.388v-4.315v-0.649c0-0.435,0.104-0.816,0.313-1.14c0.205-0.327,0.553-0.504,1.032-0.532h2.158
		c0.382,0.028,0.66,0.198,0.837,0.511c0.174,0.313,0.257,0.657,0.243,1.039v3.42h-0.712v-2.871c0-0.447-0.056-0.788-0.163-1.018
		c-0.108-0.233-0.361-0.348-0.754-0.348h-1.404c-0.247,0-0.435,0.12-0.566,0.367c-0.132,0.243-0.197,0.57-0.197,0.978l-0.012,3.541
		V278.926L299.996,278.926z"/>
	<polygon fill="#000066" points="308.692,272.695 310.991,272.695 313.293,272.695 313.293,273.429 312.479,273.429 
		311.298,273.429 311.298,288.333 310.565,288.333 310.565,273.429 309.505,273.429 308.692,273.429 	"/>
	<polygon fill="#000066" points="320.723,275.83 319.033,288.333 318.168,288.333 320.542,272.674 321.424,272.674 323.982,288.333 
		323.032,288.333 320.938,274.231 	"/>
	<polygon fill="#000066" points="336.328,288.333 336.328,272.716 340.798,272.716 340.787,273.429 337.12,273.429 337.12,279.892 
		340.502,279.892 340.502,280.698 337.12,280.698 337.12,287.558 340.908,287.558 340.94,288.333 	"/>
	<polygon fill="#000066" points="349.763,288.291 349.388,288.291 348.919,288.312 344.888,274.12 344.888,288.291 344.155,288.312 
		344.186,272.653 345.408,272.653 349.357,286.703 353.113,272.653 354.569,272.653 354.569,288.333 353.745,288.333 
		353.745,274.161 	"/>
	<path fill="#000066" d="M371.948,286.665c0,0.459-0.143,0.849-0.428,1.16c-0.284,0.311-0.646,0.479-1.081,0.508h-1.751
		c-0.479-0.027-0.816-0.212-1.011-0.549c-0.194-0.341-0.292-0.713-0.292-1.119v-0.652v-11.037v-0.649
		c0-0.435,0.104-0.816,0.313-1.14c0.205-0.327,0.554-0.504,1.032-0.532h1.994c0.49,0.028,0.824,0.198,1.001,0.511
		c0.174,0.313,0.257,0.657,0.243,1.039v3.42L371.948,286.665L371.948,286.665z M368.159,281.654v4.563
		c0,0.436,0.069,0.771,0.205,1.019c0.137,0.243,0.448,0.365,0.936,0.365h0.998c0.396,0,0.646-0.114,0.754-0.349
		c0.106-0.229,0.177-0.563,0.205-0.997v-2.892v-3.134v-2.606v-2.871c0-0.447-0.057-0.788-0.164-1.018
		c-0.107-0.233-0.361-0.348-0.754-0.348h-1.403c-0.247,0-0.436,0.12-0.566,0.367c-0.133,0.243-0.197,0.57-0.197,0.978l-0.012,3.541
		v0.652v1.384L368.159,281.654L368.159,281.654z"/>
	<polygon fill="#000066" points="380.803,288.291 380.427,288.291 379.958,288.312 375.927,274.12 375.927,288.291 375.193,288.312 
		375.225,272.653 376.448,272.653 380.396,286.703 384.152,272.653 385.608,272.653 385.608,288.333 384.784,288.333 
		384.784,274.161 	"/>
	<path fill="#000066" d="M390.436,288.333v-15.638h2.474c0.462,0.034,0.846,0.208,1.15,0.524c0.305,0.315,0.542,0.799,0.713,1.455
		c0.17,0.653,0.253,1.343,0.253,2.062c0,0.66-0.072,1.282-0.222,1.873c-0.15,0.591-0.379,1.066-0.692,1.425
		c0.407,0.271,0.713,0.74,0.921,1.407c0.205,0.664,0.311,1.453,0.311,2.359c0,0.733-0.063,1.414-0.191,2.043
		c-0.132,0.625-0.288,1.112-0.479,1.449c-0.19,0.341-0.432,0.599-0.72,0.774c-0.289,0.178-0.64,0.265-1.053,0.265L390.436,288.333
		L390.436,288.333z M391.147,279.791h1.498c0.406,0,0.702-0.087,0.886-0.264c0.236-0.219,0.414-0.573,0.528-1.07
		c0.115-0.493,0.174-1.116,0.174-1.861c0-0.728-0.056-1.336-0.167-1.821c-0.114-0.49-0.264-0.838-0.455-1.039
		c-0.188-0.205-0.549-0.354-1.077-0.448h-1.387V279.791L391.147,279.791z M391.127,287.763l1.724,0.021
		c0.372-0.098,0.674-0.327,0.903-0.692c0.231-0.367,0.409-0.792,0.542-1.274c0.129-0.479,0.19-1.069,0.19-1.77
		c0-0.773-0.065-1.459-0.202-2.054c-0.135-0.594-0.322-1.008-0.563-1.247c-0.236-0.235-0.566-0.354-0.987-0.354h-1.607V287.763
		L391.127,287.763z"/>
	<path fill="#000066" d="M400.157,288.333v-15.669h2.514c0.511,0,0.896,0.144,1.156,0.424c0.262,0.281,0.474,0.778,0.629,1.49
		c0.16,0.713,0.24,1.502,0.24,2.363c0,1.112-0.129,2.051-0.39,2.809c-0.266,0.762-0.664,1.244-1.209,1.445
		c0.197,0.264,0.347,0.528,0.448,0.785c0.219,0.556,0.424,1.247,0.62,2.078l0.998,4.273h-0.944l-0.754-3.267
		c-0.228-0.945-0.406-1.665-0.55-2.165c-0.143-0.5-0.271-0.848-0.383-1.043c-0.11-0.198-0.226-0.337-0.341-0.417
		c-0.083-0.049-0.222-0.072-0.417-0.072h-0.875v6.964L400.157,288.333L400.157,288.333z M400.908,280.757h1.396
		c0.463-0.078,0.778-0.276,0.956-0.591c0.177-0.309,0.326-0.739,0.447-1.282c0.121-0.542,0.205-1.209,0.243-2.005
		c0-1.091-0.098-1.967-0.296-2.627c-0.193-0.655-0.674-1.027-1.435-1.107h-1.313L400.908,280.757L400.908,280.757z"/>
	<path fill="#000066" d="M414.268,286.665c0,0.459-0.144,0.849-0.428,1.16c-0.285,0.311-0.646,0.479-1.081,0.508h-1.751
		c-0.479-0.027-0.816-0.212-1.013-0.549c-0.193-0.341-0.292-0.713-0.292-1.119v-0.652v-11.037v-0.649
		c0-0.435,0.104-0.816,0.313-1.14c0.204-0.327,0.552-0.504,1.031-0.532h1.995c0.489,0.028,0.822,0.198,1.001,0.511
		c0.174,0.313,0.257,0.657,0.242,1.039v3.42L414.268,286.665L414.268,286.665z M410.479,281.654v4.563
		c0,0.436,0.069,0.771,0.205,1.019c0.136,0.243,0.448,0.365,0.935,0.365h0.997c0.396,0,0.646-0.114,0.754-0.349
		c0.108-0.229,0.179-0.563,0.205-0.997v-2.892v-3.134v-2.606v-2.871c0-0.447-0.056-0.788-0.163-1.018
		c-0.106-0.233-0.36-0.348-0.754-0.348h-1.403c-0.246,0-0.435,0.12-0.566,0.367c-0.132,0.243-0.198,0.57-0.198,0.978l-0.01,3.541
		v0.652v1.384L410.479,281.654L410.479,281.654z"/>
	<polygon fill="#000066" points="426.94,288.333 426.94,272.716 431.408,272.716 431.399,273.429 427.732,273.429 427.732,279.892 
		431.114,279.892 431.114,280.698 427.732,280.698 427.732,287.558 431.521,287.558 431.552,288.333 	"/>
	<path fill="#000066" d="M444.986,281.654v4.563c0,0.436,0.069,0.771,0.205,1.019c0.136,0.243,0.448,0.365,0.936,0.365h0.997
		c0.396,0,0.646-0.114,0.755-0.349c0.106-0.229,0.162-0.568,0.162-1.019v-2.87h0.714v3.423c0.014,0.379-0.088,0.728-0.308,1.039
		c-0.215,0.31-0.526,0.479-0.935,0.508h-1.998c-0.479-0.027-0.816-0.212-1.011-0.549c-0.195-0.341-0.292-0.713-0.292-1.119v-0.652
		v-11.037v-0.649c0-0.435,0.104-0.817,0.313-1.14c0.205-0.327,0.553-0.504,1.032-0.532h1.873c0.406,0.028,0.74,0.198,0.997,0.511
		c0.261,0.313,0.382,0.657,0.368,1.039v3.42h-0.713v-2.871c0-0.447-0.056-0.788-0.162-1.018c-0.108-0.233-0.361-0.348-0.756-0.348
		h-1.402c-0.247,0-0.436,0.12-0.566,0.367c-0.132,0.243-0.198,0.57-0.198,0.978l-0.011,3.541v0.652v1.384V281.654L444.986,281.654z"
		/>
	<path fill="#000066" d="M458.281,286.665c0,0.459-0.143,0.849-0.428,1.16c-0.285,0.311-0.646,0.479-1.081,0.508h-1.751
		c-0.479-0.027-0.816-0.212-1.012-0.549c-0.194-0.341-0.292-0.713-0.292-1.119v-0.652v-11.037v-0.649
		c0-0.435,0.104-0.816,0.313-1.14c0.205-0.327,0.554-0.504,1.032-0.532h1.994c0.49,0.028,0.824,0.198,1.001,0.511
		c0.174,0.313,0.257,0.657,0.243,1.039v3.42L458.281,286.665L458.281,286.665z M454.493,281.654v4.563
		c0,0.436,0.069,0.771,0.205,1.019c0.137,0.243,0.448,0.365,0.936,0.365h0.998c0.396,0,0.646-0.114,0.754-0.349
		c0.106-0.229,0.177-0.563,0.205-0.997v-2.892v-3.134v-2.606v-2.871c0-0.447-0.057-0.788-0.164-1.018
		c-0.107-0.233-0.361-0.348-0.754-0.348h-1.403c-0.247,0-0.436,0.12-0.566,0.367c-0.133,0.243-0.197,0.57-0.197,0.978l-0.012,3.541
		v0.652v1.384L454.493,281.654L454.493,281.654z"/>
	<polygon fill="#000066" points="463.188,272.695 465.489,272.695 467.789,272.695 467.789,273.429 466.977,273.429 
		465.795,273.429 465.795,288.333 465.062,288.333 465.062,273.429 464.002,273.429 463.188,273.429 	"/>
	<path fill="#000066" d="M477.298,286.665c0,0.459-0.144,0.849-0.429,1.16c-0.284,0.311-0.646,0.479-1.081,0.508h-1.751
		c-0.479-0.027-0.815-0.212-1.012-0.549c-0.194-0.341-0.292-0.713-0.292-1.119v-0.652v-11.037v-0.649
		c0-0.435,0.104-0.816,0.313-1.14c0.204-0.327,0.552-0.504,1.031-0.532h1.994c0.49,0.028,0.823,0.198,1.001,0.511
		c0.174,0.313,0.257,0.657,0.243,1.039v3.42L477.298,286.665L477.298,286.665z M473.51,281.654v4.563
		c0,0.436,0.068,0.771,0.205,1.019c0.136,0.243,0.447,0.365,0.935,0.365h0.997c0.396,0,0.646-0.114,0.754-0.349
		c0.108-0.229,0.178-0.563,0.205-0.997v-2.892v-3.134v-2.606v-2.871c0-0.447-0.055-0.788-0.163-1.018
		c-0.106-0.233-0.361-0.348-0.754-0.348h-1.404c-0.246,0-0.434,0.12-0.565,0.367c-0.132,0.243-0.197,0.57-0.197,0.978l-0.011,3.541
		v0.652v1.384L473.51,281.654L473.51,281.654z"/>
	<polygon fill="#000066" points="483.598,286.776 484.984,277.418 485.756,272.674 486.764,272.674 484.034,288.333 483.09,288.333 
		480.543,272.674 481.471,272.674 482.203,277.438 	"/>
	<polygon fill="#000066" points="491.774,288.333 491.774,272.716 496.242,272.716 496.232,273.429 492.566,273.429 
		492.566,279.892 495.947,279.892 495.947,280.698 492.566,280.698 492.566,287.558 496.354,287.558 496.386,288.333 	"/>
	<polygon fill="#000066" points="501.281,288.333 501.262,272.653 502.073,272.653 502.073,287.52 505.862,287.52 505.894,288.333 	
		"/>
	<path fill="#000066" d="M515.168,286.665c0,0.459-0.144,0.849-0.428,1.16c-0.284,0.311-0.646,0.479-1.081,0.508h-1.751
		c-0.479-0.027-0.816-0.212-1.012-0.549c-0.194-0.341-0.292-0.713-0.292-1.119v-0.652v-11.037v-0.649
		c0-0.435,0.104-0.816,0.313-1.14c0.204-0.327,0.553-0.504,1.031-0.532h1.995c0.49,0.028,0.823,0.198,1.001,0.511
		c0.173,0.313,0.257,0.657,0.243,1.039v3.42L515.168,286.665L515.168,286.665z M511.381,281.654v4.563
		c0,0.436,0.068,0.771,0.204,1.019c0.136,0.243,0.448,0.365,0.936,0.365h0.997c0.396,0,0.646-0.114,0.754-0.349
		c0.107-0.229,0.178-0.563,0.205-0.997v-2.892v-3.134v-2.606v-2.871c0-0.447-0.056-0.788-0.163-1.018
		c-0.107-0.233-0.361-0.348-0.754-0.348h-1.404c-0.246,0-0.435,0.12-0.565,0.367c-0.132,0.243-0.198,0.57-0.198,0.978l-0.01,3.541
		v0.652v1.384L511.381,281.654L511.381,281.654z"/>
	<path fill="none" stroke="#000066" stroke-width="0.5669" stroke-miterlimit="22.9256" d="M220.464,288.333v-15.617h4.469
		l-0.01,0.714h-3.666v6.463h3.381v0.807h-3.381v6.859h3.788l0.031,0.774H220.464L220.464,288.333z M230.764,278.926
		c0,0.627,0.285,0.936,0.855,0.936h2.157c0.519,0,0.775,0.327,0.775,0.979v5.172v0.652c0,0.436-0.104,0.813-0.309,1.141
		c-0.209,0.322-0.554,0.5-1.036,0.527h-2.158c-0.299-0.027-0.556-0.197-0.771-0.508c-0.219-0.313-0.319-0.66-0.306-1.039v-3.423
		h0.712v2.87c0,0.449,0.052,0.789,0.163,1.019c0.108,0.233,0.358,0.349,0.75,0.349h0.998c0.403,0,0.699-0.122,0.886-0.365
		c0.191-0.246,0.285-0.569,0.285-0.979l-0.028-4.601c0.019-0.637-0.268-0.963-0.854-0.977h-1.835c-0.706,0-1.061-0.464-1.061-1.388
		v-4.315v-0.649c0-0.435,0.104-0.816,0.313-1.14c0.205-0.327,0.553-0.504,1.032-0.532h2.158c0.382,0.028,0.659,0.198,0.837,0.511
		c0.174,0.313,0.257,0.657,0.242,1.039v3.42h-0.712v-2.871c0-0.447-0.056-0.788-0.164-1.018c-0.107-0.233-0.36-0.348-0.754-0.348
		h-1.403c-0.247,0-0.435,0.12-0.566,0.367c-0.132,0.243-0.198,0.57-0.198,0.978l-0.011,3.541L230.764,278.926L230.764,278.926z
		 M239.469,288.333v-15.647h2.513c0.512,0,0.896,0.143,1.157,0.428c0.26,0.285,0.472,0.781,0.629,1.49
		c0.16,0.709,0.24,1.494,0.24,2.359c0,1.111-0.132,2.013-0.4,2.696c-0.271,0.686-0.531,1.112-0.789,1.282
		c-0.261,0.17-0.632,0.313-1.123,0.428l-0.607,0.01h-0.875v6.954H239.469L239.469,288.333z M240.219,280.757h1.456
		c0.504-0.242,0.845-0.5,1.019-0.771c0.178-0.271,0.326-0.681,0.448-1.223s0.209-1.18,0.257-1.904
		c-0.076-1.091-0.202-1.957-0.379-2.596c-0.177-0.638-0.684-1.025-1.524-1.161l-1.275,0.03L240.219,280.757L240.219,280.757z
		 M248.998,288.333v-15.617h4.469l-0.01,0.714h-3.667v6.463h3.381v0.807h-3.381v6.859h3.788l0.03,0.774H248.998L248.998,288.333z
		 M259.297,281.654v4.563c0,0.436,0.069,0.771,0.205,1.019c0.136,0.243,0.448,0.365,0.935,0.365h0.998
		c0.396,0,0.646-0.114,0.754-0.349c0.108-0.229,0.164-0.568,0.164-1.019v-2.87h0.712v3.423c0.015,0.379-0.087,0.728-0.306,1.039
		c-0.215,0.31-0.528,0.479-0.936,0.508h-1.997c-0.479-0.027-0.816-0.212-1.012-0.549c-0.193-0.341-0.292-0.713-0.292-1.119v-0.652
		v-11.037v-0.649c0-0.435,0.104-0.817,0.313-1.14c0.205-0.327,0.552-0.504,1.032-0.532h1.873c0.406,0.028,0.739,0.198,0.997,0.511
		c0.261,0.313,0.383,0.657,0.368,1.039v3.42h-0.712v-2.871c0-0.447-0.056-0.788-0.163-1.018c-0.107-0.233-0.36-0.348-0.754-0.348
		h-1.403c-0.247,0-0.435,0.12-0.566,0.367c-0.132,0.243-0.198,0.57-0.198,0.978l-0.01,3.541v0.652v1.384v1.345H259.297z
		 M268.013,288.333l-0.021-15.68h0.813v15.68H268.013L268.013,288.333z M276.276,275.83l-1.688,12.503h-0.866l2.374-15.659h0.883
		l2.559,15.659h-0.949l-2.095-14.102L276.276,275.83L276.276,275.83z M284.137,288.333l-0.021-15.68h0.813v14.866h3.788l0.031,0.813
		L284.137,288.333L284.137,288.333z M293.443,288.333l-0.021-15.68h0.813v15.68H293.443L293.443,288.333z M299.996,278.926
		c0,0.627,0.285,0.936,0.855,0.936h2.158c0.518,0,0.774,0.327,0.774,0.979v5.172v0.652c0,0.436-0.104,0.813-0.309,1.141
		c-0.209,0.322-0.553,0.5-1.036,0.527h-2.158c-0.299-0.027-0.556-0.197-0.771-0.508c-0.219-0.313-0.32-0.66-0.307-1.039v-3.423
		h0.713v2.87c0,0.449,0.052,0.789,0.162,1.019c0.108,0.233,0.358,0.349,0.75,0.349h0.998c0.403,0,0.699-0.122,0.887-0.365
		c0.19-0.246,0.284-0.569,0.284-0.979l-0.027-4.601c0.018-0.637-0.269-0.963-0.854-0.977h-1.835c-0.706,0-1.06-0.464-1.06-1.388
		v-4.315v-0.649c0-0.435,0.104-0.816,0.313-1.14c0.205-0.327,0.553-0.504,1.032-0.532h2.158c0.382,0.028,0.66,0.198,0.837,0.511
		c0.174,0.313,0.257,0.657,0.243,1.039v3.42h-0.712v-2.871c0-0.447-0.056-0.788-0.163-1.018c-0.108-0.233-0.361-0.348-0.754-0.348
		h-1.404c-0.247,0-0.435,0.12-0.566,0.367c-0.132,0.243-0.197,0.57-0.197,0.978l-0.012,3.541V278.926L299.996,278.926z
		 M308.692,272.695h2.3h2.301v0.733h-0.813h-1.182v14.903h-0.733v-14.903h-1.06h-0.813V272.695L308.692,272.695z M320.723,275.83
		l-1.689,12.503h-0.865l2.374-15.659h0.883l2.558,15.659h-0.949l-2.095-14.102L320.723,275.83L320.723,275.83z M336.328,288.333
		v-15.617h4.47l-0.011,0.714h-3.667v6.463h3.382v0.807h-3.382v6.859h3.788l0.031,0.774H336.328L336.328,288.333z M349.763,288.291
		h-0.375l-0.469,0.021l-4.031-14.191v14.171l-0.733,0.021l0.031-15.658h1.223l3.948,14.05l3.756-14.05h1.456v15.68h-0.824v-14.172
		L349.763,288.291L349.763,288.291z M371.948,286.665c0,0.459-0.143,0.849-0.428,1.16c-0.284,0.311-0.646,0.479-1.081,0.508h-1.751
		c-0.479-0.027-0.816-0.212-1.011-0.549c-0.194-0.341-0.292-0.713-0.292-1.119v-0.652v-11.037v-0.649
		c0-0.435,0.104-0.816,0.313-1.14c0.205-0.327,0.554-0.504,1.032-0.532h1.994c0.49,0.028,0.824,0.198,1.001,0.511
		c0.174,0.313,0.257,0.657,0.243,1.039v3.42L371.948,286.665L371.948,286.665z M368.159,281.654v4.563
		c0,0.436,0.069,0.771,0.205,1.019c0.137,0.243,0.448,0.365,0.936,0.365h0.998c0.396,0,0.646-0.114,0.754-0.349
		c0.106-0.229,0.177-0.563,0.205-0.997v-2.892v-3.134v-2.606v-2.871c0-0.447-0.057-0.788-0.164-1.018
		c-0.107-0.233-0.361-0.348-0.754-0.348h-1.403c-0.247,0-0.436,0.12-0.566,0.367c-0.133,0.243-0.197,0.57-0.197,0.978l-0.012,3.541
		v0.652v1.384L368.159,281.654L368.159,281.654z M380.803,288.291h-0.376l-0.469,0.021l-4.031-14.191v14.171l-0.733,0.021
		l0.031-15.658h1.224l3.948,14.05l3.756-14.05h1.456v15.68h-0.823v-14.172L380.803,288.291L380.803,288.291z M390.436,288.333
		v-15.638h2.474c0.462,0.034,0.846,0.208,1.15,0.524c0.305,0.315,0.542,0.799,0.713,1.455c0.17,0.653,0.253,1.343,0.253,2.062
		c0,0.66-0.072,1.282-0.222,1.873c-0.15,0.591-0.379,1.066-0.692,1.425c0.407,0.271,0.713,0.74,0.921,1.407
		c0.205,0.664,0.311,1.453,0.311,2.359c0,0.733-0.063,1.414-0.191,2.043c-0.132,0.625-0.288,1.112-0.479,1.449
		c-0.19,0.341-0.432,0.599-0.72,0.774c-0.289,0.178-0.64,0.265-1.053,0.265L390.436,288.333L390.436,288.333z M391.147,279.791
		h1.498c0.406,0,0.702-0.087,0.886-0.264c0.236-0.219,0.414-0.573,0.528-1.07c0.115-0.493,0.174-1.116,0.174-1.861
		c0-0.728-0.056-1.336-0.167-1.821c-0.114-0.49-0.264-0.838-0.455-1.039c-0.188-0.205-0.549-0.354-1.077-0.448h-1.387V279.791
		L391.147,279.791z M391.127,287.763l1.724,0.021c0.372-0.098,0.674-0.327,0.903-0.692c0.231-0.367,0.409-0.792,0.542-1.274
		c0.129-0.479,0.19-1.069,0.19-1.77c0-0.773-0.065-1.459-0.202-2.054c-0.135-0.594-0.322-1.008-0.563-1.247
		c-0.236-0.235-0.566-0.354-0.987-0.354h-1.607V287.763L391.127,287.763z M400.157,288.333v-15.669h2.514
		c0.511,0,0.896,0.144,1.156,0.424c0.262,0.281,0.474,0.778,0.629,1.49c0.16,0.713,0.24,1.502,0.24,2.363
		c0,1.112-0.129,2.051-0.39,2.809c-0.266,0.762-0.664,1.244-1.209,1.445c0.197,0.264,0.347,0.528,0.448,0.785
		c0.219,0.556,0.424,1.247,0.62,2.078l0.998,4.273h-0.944l-0.754-3.267c-0.228-0.945-0.406-1.665-0.55-2.165
		c-0.143-0.5-0.271-0.848-0.383-1.043c-0.11-0.198-0.226-0.337-0.341-0.417c-0.083-0.049-0.222-0.072-0.417-0.072h-0.875v6.964
		L400.157,288.333L400.157,288.333z M400.908,280.757h1.396c0.463-0.078,0.778-0.276,0.956-0.591
		c0.177-0.309,0.326-0.739,0.447-1.282c0.121-0.542,0.205-1.209,0.243-2.005c0-1.091-0.098-1.967-0.296-2.627
		c-0.193-0.655-0.674-1.027-1.435-1.107h-1.313L400.908,280.757L400.908,280.757z M414.268,286.665c0,0.459-0.144,0.849-0.428,1.16
		c-0.285,0.311-0.646,0.479-1.081,0.508h-1.751c-0.479-0.027-0.816-0.212-1.013-0.549c-0.193-0.341-0.292-0.713-0.292-1.119v-0.652
		v-11.037v-0.649c0-0.435,0.104-0.816,0.313-1.14c0.204-0.327,0.552-0.504,1.031-0.532h1.995c0.489,0.028,0.822,0.198,1.001,0.511
		c0.174,0.313,0.257,0.657,0.242,1.039v3.42L414.268,286.665L414.268,286.665z M410.479,281.654v4.563
		c0,0.436,0.069,0.771,0.205,1.019c0.136,0.243,0.448,0.365,0.935,0.365h0.997c0.396,0,0.646-0.114,0.754-0.349
		c0.108-0.229,0.179-0.563,0.205-0.997v-2.892v-3.134v-2.606v-2.871c0-0.447-0.056-0.788-0.163-1.018
		c-0.106-0.233-0.36-0.348-0.754-0.348h-1.403c-0.246,0-0.435,0.12-0.566,0.367c-0.132,0.243-0.198,0.57-0.198,0.978l-0.01,3.541
		v0.652v1.384L410.479,281.654L410.479,281.654z M426.94,288.333v-15.617h4.469l-0.01,0.714h-3.667v6.463h3.382v0.807h-3.382v6.859
		h3.788l0.031,0.774H426.94L426.94,288.333z M444.986,281.654v4.563c0,0.436,0.069,0.771,0.205,1.019
		c0.136,0.243,0.448,0.365,0.936,0.365h0.997c0.396,0,0.646-0.114,0.755-0.349c0.106-0.229,0.162-0.568,0.162-1.019v-2.87h0.714
		v3.423c0.014,0.379-0.088,0.728-0.308,1.039c-0.215,0.31-0.526,0.479-0.935,0.508h-1.998c-0.479-0.027-0.816-0.212-1.011-0.549
		c-0.195-0.341-0.292-0.713-0.292-1.119v-0.652v-11.037v-0.649c0-0.435,0.104-0.817,0.313-1.14c0.205-0.327,0.553-0.504,1.032-0.532
		h1.873c0.406,0.028,0.74,0.198,0.997,0.511c0.261,0.313,0.382,0.657,0.368,1.039v3.42h-0.713v-2.871
		c0-0.447-0.056-0.788-0.162-1.018c-0.108-0.233-0.361-0.348-0.756-0.348h-1.402c-0.247,0-0.436,0.12-0.566,0.367
		c-0.132,0.243-0.198,0.57-0.198,0.978l-0.011,3.541v0.652v1.384V281.654L444.986,281.654z M458.281,286.665
		c0,0.459-0.143,0.849-0.428,1.16c-0.285,0.311-0.646,0.479-1.081,0.508h-1.751c-0.479-0.027-0.816-0.212-1.012-0.549
		c-0.194-0.341-0.292-0.713-0.292-1.119v-0.652v-11.037v-0.649c0-0.435,0.104-0.816,0.313-1.14c0.205-0.327,0.554-0.504,1.032-0.532
		h1.994c0.49,0.028,0.824,0.198,1.001,0.511c0.174,0.313,0.257,0.657,0.243,1.039v3.42L458.281,286.665L458.281,286.665z
		 M454.493,281.654v4.563c0,0.436,0.069,0.771,0.205,1.019c0.137,0.243,0.448,0.365,0.936,0.365h0.998
		c0.396,0,0.646-0.114,0.754-0.349c0.106-0.229,0.177-0.563,0.205-0.997v-2.892v-3.134v-2.606v-2.871
		c0-0.447-0.057-0.788-0.164-1.018c-0.107-0.233-0.361-0.348-0.754-0.348h-1.403c-0.247,0-0.436,0.12-0.566,0.367
		c-0.133,0.243-0.197,0.57-0.197,0.978l-0.012,3.541v0.652v1.384L454.493,281.654L454.493,281.654z M463.188,272.695h2.301h2.301
		v0.733h-0.813h-1.182v14.903h-0.733v-14.903h-1.06h-0.813L463.188,272.695L463.188,272.695z M477.298,286.665
		c0,0.459-0.144,0.849-0.429,1.16c-0.284,0.311-0.646,0.479-1.081,0.508h-1.751c-0.479-0.027-0.815-0.212-1.012-0.549
		c-0.194-0.341-0.292-0.713-0.292-1.119v-0.652v-11.037v-0.649c0-0.435,0.104-0.816,0.313-1.14c0.204-0.327,0.552-0.504,1.031-0.532
		h1.994c0.49,0.028,0.823,0.198,1.001,0.511c0.174,0.313,0.257,0.657,0.243,1.039v3.42L477.298,286.665L477.298,286.665z
		 M473.51,281.654v4.563c0,0.436,0.068,0.771,0.205,1.019c0.136,0.243,0.447,0.365,0.935,0.365h0.997
		c0.396,0,0.646-0.114,0.754-0.349c0.108-0.229,0.178-0.563,0.205-0.997v-2.892v-3.134v-2.606v-2.871
		c0-0.447-0.055-0.788-0.163-1.018c-0.106-0.233-0.361-0.348-0.754-0.348h-1.404c-0.246,0-0.434,0.12-0.565,0.367
		c-0.132,0.243-0.197,0.57-0.197,0.978l-0.011,3.541v0.652v1.384L473.51,281.654L473.51,281.654z M483.598,286.776l1.387-9.358
		l0.771-4.744h1.008l-2.729,15.659h-0.944l-2.548-15.659h0.929l0.732,4.766L483.598,286.776L483.598,286.776z M491.774,288.333
		v-15.617h4.469l-0.011,0.714h-3.666v6.463h3.381v0.807h-3.381v6.859h3.788l0.031,0.774H491.774L491.774,288.333z M501.281,288.333
		l-0.021-15.68h0.813v14.866h3.788l0.031,0.813L501.281,288.333L501.281,288.333z M515.168,286.665c0,0.459-0.144,0.849-0.428,1.16
		c-0.284,0.311-0.646,0.479-1.081,0.508h-1.751c-0.479-0.027-0.816-0.212-1.012-0.549c-0.194-0.341-0.292-0.713-0.292-1.119v-0.652
		v-11.037v-0.649c0-0.435,0.104-0.816,0.313-1.14c0.204-0.327,0.553-0.504,1.031-0.532h1.995c0.49,0.028,0.823,0.198,1.001,0.511
		c0.173,0.313,0.257,0.657,0.243,1.039v3.42L515.168,286.665L515.168,286.665z M511.381,281.654v4.563
		c0,0.436,0.068,0.771,0.204,1.019c0.136,0.243,0.448,0.365,0.936,0.365h0.997c0.396,0,0.646-0.114,0.754-0.349
		c0.107-0.229,0.178-0.563,0.205-0.997v-2.892v-3.134v-2.606v-2.871c0-0.447-0.056-0.788-0.163-1.018
		c-0.107-0.233-0.361-0.348-0.754-0.348h-1.404c-0.246,0-0.435,0.12-0.565,0.367c-0.132,0.243-0.198,0.57-0.198,0.978l-0.01,3.541
		v0.652v1.384L511.381,281.654L511.381,281.654z"/>
	<polygon fill="#E6E6E6" points="220,293.498 515.222,293.498 515.222,294.708 220,294.708 	"/>
</g>
</svg>
